<svg xmlns="http://www.w3.org/2000/svg" viewBox="0 0 72.99 88.04"><defs><style>.a{fill:#fff;}.b{fill:#c3d6d8;}.c{fill:#181d1e;}.d{fill:#bd5d38;}.e{fill:#f9bd00;}.f{fill:#b06149;}.g{fill:#222c2d;}</style></defs><title>logo_roni_laboratory3</title><path class="a" d="M20.66,62.34s-3.54,21.9,15.85,23.9S51.64,61.82,51.64,61.82,39,67.57,20.66,62.34Z"/><path class="a" d="M17.21,59.87S6.52,70.45,10.07,77.41c4.38,2.48,9.21-.07,13.94-5C21.19,67.36,19.88,60.53,17.21,59.87Z"/><path class="b" d="M18.79,62.28s-3,6.19-1.23,11.8,3.72-.66,3.72-.66Z"/><path class="c" d="M24.86,69.4c0-.18,0-.34,0-.46a21.81,21.81,0,0,0-.61-4.37c-1.1-4.31-3.73-6.51-7.2-6l-.49.06-.39.31A25.57,25.57,0,0,0,7.56,74.43a5,5,0,0,0,1.92,4.66,6.66,6.66,0,0,0,6,1.06,3.26,3.26,0,0,0,.44-.15c1.91-.73,4.47-2.72,7.81-6.08l.17-.18C25.14,72.58,25,70.67,24.86,69.4ZM14.63,76.64a3.07,3.07,0,0,1-2.91-.37,1.38,1.38,0,0,1-.59-1.35,20.21,20.21,0,0,1,1.08-4.27,15,15,0,0,1,5,4.37A10.38,10.38,0,0,1,14.63,76.64Zm6.68-5.4-.14.14c-1.1,1.1-2,2-2.84,2.68a16.82,16.82,0,0,0-5.53-4.81A23.16,23.16,0,0,1,18,62.07c.76,0,2,.49,2.74,3.4a18.18,18.18,0,0,1,.5,3.65c0,.19,0,.39.05.6A7.75,7.75,0,0,1,21.31,71.24Z"/><path class="a" d="M55.78,59.87s10.69,10.58,7.13,17.54c-4.37,2.48-9.2-.07-13.94-5C51.8,67.36,53.11,60.53,55.78,59.87Z"/><path class="b" d="M54.22,62.28s3,6.19,1.24,11.8-3.73-.66-3.73-.66Z"/><path class="c" d="M65.43,74.43a25.51,25.51,0,0,0-8.58-15.52l-.38-.31L56,58.54c-3.47-.48-6.1,1.72-7.2,6a21.81,21.81,0,0,0-.61,4.37c0,.12,0,.28,0,.46-.11,1.27-.29,3.18,1,4.34l.17.18c3.34,3.36,5.9,5.35,7.81,6.08a3.66,3.66,0,0,0,.43.15,6.68,6.68,0,0,0,6-1.06A5,5,0,0,0,65.43,74.43ZM51.68,71.24a7,7,0,0,1,0-1.52c0-.21,0-.41,0-.6a18.12,18.12,0,0,1,.51-3.65c.74-2.91,2-3.37,2.74-3.4a23.16,23.16,0,0,1,5.18,7.18,16.72,16.72,0,0,0-5.53,4.81c-.81-.7-1.74-1.58-2.84-2.68Zm9.59,5a3.07,3.07,0,0,1-2.91.37A10.36,10.36,0,0,1,55.81,75a15.17,15.17,0,0,1,5-4.37,20.21,20.21,0,0,1,1.08,4.27A1.42,1.42,0,0,1,61.27,76.27Z"/><path class="a" d="M48.48,57.68S54.06,59.76,52.7,69,45.45,86.24,36.51,86.24,21.67,78.16,20.31,69s4.23-11.28,4.23-11.28"/><path class="b" d="M50.22,59.87l-28.11.48S36.69,66.61,41.93,77.8a8.79,8.79,0,0,1,.3,7.21C47.94,82.42,51.66,76,52.7,69a16.49,16.49,0,0,0,.1-4.61C51.86,62.75,50.22,59.87,50.22,59.87Z"/><path class="c" d="M49.49,57l-1.64,2.39a4.74,4.74,0,0,1,1.8,1.57c1.32,1.79,1.76,4.48,1.27,7.76C50.09,74.34,47.31,80,42.7,82.76c3.39-6,4.29-10.76,4.4-13.88A13.75,13.75,0,0,0,46,62.4l-1.46.76a12.47,12.47,0,0,1,.87,5.53,25.89,25.89,0,0,1-8.94,1.57,24.73,24.73,0,0,1-8.95-1.62,12.9,12.9,0,0,1,.88-5.49l-.73-.37L27,62.4a13.9,13.9,0,0,0-1.06,6.48c.11,3.12,1,7.88,4.41,13.88-4.62-2.73-7.4-8.42-8.24-14.06C21,61.18,25,59.43,25.19,59.36h0L22.51,57.2c-1.1,1.69-5.53,1.5-4,12a25.64,25.64,0,0,0,5.68,13,15.92,15.92,0,0,0,24.6,0,25.63,25.63,0,0,0,5.67-13C56,58.7,49.77,57.08,49.49,57ZM32.94,83.92c-3.57-5.65-4.86-10.23-5.24-13.46a26.75,26.75,0,0,0,8.81,1.45,27.67,27.67,0,0,0,8.81-1.42c-.4,3.41-1.76,7.93-5.24,13.42a12.13,12.13,0,0,1-3.57.53A12.47,12.47,0,0,1,32.94,83.92Z"/><path class="d" d="M40.27,77.48a22.08,22.08,0,0,1-7.52,0V75.4a22.08,22.08,0,0,0,7.52,0Z"/><path class="e" d="M19.69,22.59l3.53,11.5,27.23-2.71L51.59,22S37.38,15.86,19.69,22.59Z"/><path class="a" d="M36.47,19.44S11.15,19.36,9.35,34.09s.92,21.17,4.71,22.63,15.77,5,22.16,5.1,27.57-2.57,27.42-9.64-1-22.33-1-22.33S53.84,19.26,36.47,19.44Z"/><path class="b" d="M10.22,52.3c1,2.43,2.31,3.83,3.84,4.42,3.79,1.47,15.77,5,22.16,5.1s27.57-2.57,27.42-9.64c-.09-4.29-.45-11.59-.72-16.67C57.74,41.07,41.39,55.07,10.22,52.3Z"/><circle class="f" cx="36.49" cy="6.89" r="4.95"/><path class="c" d="M2.46,48.11l2.47.49A.92.92,0,0,0,6,47.7V34.16a.93.93,0,0,0-1.11-.9l-2.47.5a3.07,3.07,0,0,0-2.46,3V45.1A3.07,3.07,0,0,0,2.46,48.11Z"/><path class="c" d="M54.65,21a52.37,52.37,0,0,0-16.21-3.22V13.5a6.9,6.9,0,1,0-3.89,0v4.29A52.49,52.49,0,0,0,18.33,21,16.62,16.62,0,0,0,7.55,36.57v13.3a9.6,9.6,0,0,0,5.29,8.59,52.51,52.51,0,0,0,47.31,0,9.6,9.6,0,0,0,5.29-8.59V36.57A16.63,16.63,0,0,0,54.65,21ZM33.49,6.89a3,3,0,1,1,3,3A3,3,0,0,1,33.49,6.89Zm3,14.76h0a48.32,48.32,0,0,1,13.9,2L48.56,30.9s0,.07,0,.1a81.63,81.63,0,0,0-12-1.15,81.55,81.55,0,0,0-12,1.15s0-.07,0-.1l-1.85-7.21A48.44,48.44,0,0,1,36.49,21.65ZM61.55,49.87A5.72,5.72,0,0,1,58.39,55,48.59,48.59,0,0,1,14.6,55a5.72,5.72,0,0,1-3.16-5.12V36.57A12.74,12.74,0,0,1,18.9,25l1.75,6.85a28,28,0,0,0-4.81,1.68,3.06,3.06,0,0,0-1.78,2.78V49.78a3.07,3.07,0,0,0,1.46,2.61c2.9,1.76,10.08,5.3,21,5.3s18.08-3.54,21-5.3a3.07,3.07,0,0,0,1.46-2.61V36.29a3.06,3.06,0,0,0-1.78-2.78,28,28,0,0,0-4.81-1.68L54.09,25a12.74,12.74,0,0,1,7.46,11.59Z"/><path class="g" d="M56.22,35.49C49.31,32.25,37,32.05,36.49,32s-12.8.2-19.73,3.45a.89.89,0,0,0-.51.8V38.5c7.89,4,21.38,8.67,40.49,8.17V36.29A.89.89,0,0,0,56.22,35.49Z"/><path class="d" d="M28.48,43.77a4.65,4.65,0,1,1-4.64-4.64A4.65,4.65,0,0,1,28.48,43.77Z"/><path class="d" d="M48.57,44.13a2.24,2.24,0,0,1,2,1.3,1.54,1.54,0,0,0,1.4.93h0a1.52,1.52,0,0,0,1.38-2.15,5.27,5.27,0,0,0-9.62,0,1.52,1.52,0,0,0,1.39,2.15h0a1.53,1.53,0,0,0,1.39-.93A2.24,2.24,0,0,1,48.57,44.13Z"/><path class="c" d="M70.53,48.11l-2.48.49a.92.92,0,0,1-1.1-.9V34.16a.92.92,0,0,1,1.1-.9l2.48.5a3.07,3.07,0,0,1,2.46,3V45.1A3.07,3.07,0,0,1,70.53,48.11Z"/></svg>